<svg width="610" height="58" viewBox="0 0 610 58" fill="none" xmlns="http://www.w3.org/2000/svg">
<path d="M0.47998 32.3919L22.8396 11.4707V2.78788H27.4511V6.79247L34.5813 0.111908L68.7215 32.3919H62.9669L34.6007 5.6884L6.6996 32.3919H0.47998Z" fill="#48CBC5"/>
<path d="M10.8654 35.517V57.1119H58.3554V36.3965L54.209 32.3919L53.9765 53.3319H15.2443L15.4574 31.2879L10.8654 35.517Z" fill="#48CBC5"/>
<path d="M27.141 46.7449V22.5676H29.5436V46.8946L27.141 46.7449ZM28.8461 24.7383V22.5676H43.2616V24.8132L28.8461 24.7383ZM28.8461 35.8164V33.5896H41.3628V35.8164H28.8461ZM28.8461 46.7449V44.4993H43.2616V46.7449H28.8461Z" fill="#48CBC5"/>
<path d="M78.3125 46.7449V17.7957H81.277V46.7449H78.3125ZM80.2501 20.453V17.7957H97.4751V20.453H80.2501ZM80.2501 33.7019V31.0259H95.2082V33.7954L80.2501 33.7019ZM80.2501 46.801V44.0689H97.4751V46.7449L80.2501 46.801Z" fill="#48CBC5"/>
<path d="M106.097 17.7957V41.2806C106.053 42.0183 106.295 42.7454 106.775 43.3204C107.019 43.5778 107.32 43.7775 107.656 43.9041C107.992 44.0307 108.354 44.0807 108.713 44.0502H110.651V46.7261H108.151C107.463 46.7623 106.774 46.652 106.135 46.403C105.495 46.1541 104.92 45.7725 104.45 45.2852C103.532 44.1459 103.077 42.7215 103.172 41.2806V17.7957H106.097Z" fill="#48CBC5"/>
<path d="M115.979 20.6963V17.7957H118.943V20.6963H115.979ZM115.979 46.7823V26.0669H118.943V46.7449L115.979 46.7823Z" fill="#48CBC5"/>
<path d="M124.311 28.537V26.0669H133.998V28.537H124.311ZM131.538 46.8946C130.824 46.9626 130.103 46.8714 129.431 46.6281C128.759 46.3848 128.154 45.9958 127.663 45.4911C126.779 44.2617 126.374 42.7704 126.519 41.2806V20.06H129.484V41.4116C129.442 42.1401 129.661 42.8602 130.104 43.4514C130.333 43.6991 130.619 43.8921 130.938 44.0155C131.257 44.1389 131.602 44.1892 131.945 44.1625H133.882V46.8946H131.538Z" fill="#48CBC5"/>
<path d="M148.492 47.0443C147.227 47.1226 145.96 46.9469 144.769 46.5282C143.578 46.1095 142.491 45.4569 141.574 44.6116C140.716 43.6877 140.056 42.608 139.633 41.4353C139.211 40.2627 139.034 39.0205 139.114 37.7813V35.4422C138.948 32.8577 139.791 30.307 141.478 28.2938C142.329 27.4326 143.365 26.7606 144.513 26.3243C145.66 25.8881 146.892 25.6981 148.123 25.7675C149.287 25.6889 150.455 25.8652 151.538 26.2832C152.622 26.7012 153.594 27.3501 154.382 28.1815C155.979 30.1905 156.77 32.6894 156.61 35.2176V37.5942H141.109V35.0679H153.82V34.8808C153.955 33.1519 153.431 31.4349 152.347 30.0528C151.819 29.4839 151.165 29.0371 150.434 28.7456C149.703 28.454 148.913 28.3252 148.123 28.3686C147.268 28.3153 146.411 28.4454 145.614 28.7495C144.817 29.0536 144.099 29.5242 143.512 30.1277C142.341 31.5794 141.774 33.4016 141.923 35.2363V37.8562C141.868 38.728 141.992 39.6018 142.288 40.4271C142.584 41.2525 143.046 42.0132 143.648 42.6654C144.298 43.2566 145.066 43.7128 145.906 44.0056C146.746 44.2985 147.639 44.422 148.53 44.3683C149.544 44.3609 150.545 44.1573 151.475 43.7695C152.446 43.3772 153.328 42.805 154.072 42.0853L156.009 43.9566C154.983 44.9221 153.781 45.6961 152.464 46.2396C151.206 46.7552 149.857 47.0285 148.492 47.0443Z" fill="#48CBC5"/>
<path d="M174.126 46.7449V17.7957H177.09V46.7449H174.126ZM176.063 33.8141V31.0446H193.947V33.7954L176.063 33.8141ZM192.339 46.7449V17.7957H195.303V46.7449H192.339Z" fill="#48CBC5"/>
<path d="M210.591 47.0443C209.392 47.1143 208.192 46.9405 207.067 46.5344C205.942 46.1283 204.918 45.4987 204.061 44.6864C202.431 42.8441 201.604 40.4625 201.756 38.0433V34.675C201.623 32.3035 202.449 29.975 204.061 28.1815C205.873 26.6709 208.187 25.8398 210.581 25.8398C212.975 25.8398 215.289 26.6709 217.101 28.1815C218.72 29.9722 219.554 32.301 219.426 34.675V38.0994C219.58 40.5076 218.752 42.8782 217.121 44.7052C216.26 45.5122 215.235 46.137 214.111 46.5398C212.987 46.9425 211.788 47.1144 210.591 47.0443ZM210.591 44.3683C211.395 44.4149 212.2 44.2917 212.949 44.0073C213.699 43.7229 214.375 43.2842 214.931 42.7216C216.02 41.4189 216.566 39.7705 216.462 38.0994V34.675C216.566 33.0095 216.02 31.3667 214.931 30.0715C213.749 29.0261 212.204 28.4463 210.601 28.4463C208.998 28.4463 207.453 29.0261 206.27 30.0715C205.181 31.3667 204.635 33.0095 204.739 34.675V38.0994C204.636 39.7705 205.181 41.4189 206.27 42.7216C206.82 43.2812 207.49 43.7184 208.233 44.0028C208.976 44.2872 209.774 44.4119 210.572 44.3683H210.591Z" fill="#48CBC5"/>
<path d="M225.394 46.7449V26.0669H228.358V46.7449H225.394ZM238.783 46.7449V34.2071C238.856 32.7136 238.383 31.2428 237.446 30.0528C236.959 29.5356 236.358 29.1308 235.687 28.8685C235.016 28.6061 234.293 28.4928 233.571 28.537C232.862 28.4901 232.15 28.5875 231.483 28.8228C230.815 29.0581 230.206 29.4261 229.695 29.9031C229.21 30.4237 228.838 31.0332 228.602 31.6955C228.365 32.3577 228.269 33.0592 228.32 33.758L227.893 29.7721C228.48 28.475 229.495 27.4023 230.78 26.7219C231.988 26.1543 233.313 25.8599 234.656 25.8611C235.635 25.8065 236.613 25.9783 237.509 26.3624C238.406 26.7464 239.194 27.3316 239.809 28.0692C241.177 29.863 241.861 32.0574 241.747 34.282V46.8384L238.783 46.7449ZM252.191 46.7449V34.2071C252.291 32.6787 251.809 31.1676 250.834 29.9592C250.348 29.441 249.747 29.0355 249.076 28.773C248.405 28.5105 247.682 28.3979 246.959 28.4435C246.241 28.4024 245.522 28.5135 244.852 28.7688C244.183 29.0242 243.579 29.4177 243.084 29.9218C242.111 31.0873 241.627 32.5634 241.728 34.0574L240.468 31.0633C241.036 29.5359 242.02 28.1847 243.317 27.1523C244.58 26.2127 246.14 25.7236 247.734 25.7675C248.759 25.7082 249.784 25.8764 250.731 26.2592C251.679 26.6419 252.522 27.2291 253.198 27.9757C254.591 29.7571 255.278 31.9606 255.136 34.1884V46.7449H252.191Z" fill="#48CBC5"/>
<path d="M270.326 47.0443C269.059 47.123 267.788 46.9475 266.595 46.5288C265.401 46.1101 264.31 45.4574 263.39 44.6116C262.531 43.6877 261.871 42.608 261.449 41.4353C261.026 40.2627 260.85 39.0205 260.929 37.7813V35.4422C260.763 32.8577 261.607 30.307 263.293 28.2938C264.145 27.4326 265.181 26.7606 266.328 26.3243C267.476 25.8881 268.708 25.6981 269.939 25.7675C271.103 25.6889 272.27 25.8652 273.354 26.2832C274.438 26.7012 275.41 27.3501 276.197 28.1815C277.803 30.1865 278.595 32.6884 278.426 35.2176V37.5942H262.925V35.0679H275.616V34.8808C275.726 33.1747 275.197 31.4874 274.124 30.1277C273.596 29.5588 272.942 29.112 272.211 28.8204C271.48 28.5289 270.69 28.4001 269.9 28.4435C269.045 28.3902 268.188 28.5202 267.391 28.8243C266.593 29.1284 265.876 29.5991 265.289 30.2025C264.122 31.6293 263.543 33.422 263.661 35.2363V37.8562C263.606 38.728 263.73 39.6018 264.026 40.4271C264.322 41.2525 264.784 42.0132 265.386 42.6654C266.039 43.2581 266.811 43.715 267.654 44.0079C268.497 44.3008 269.393 44.4235 270.288 44.3683C271.295 44.3605 272.29 44.1568 273.213 43.7695C274.184 43.3772 275.067 42.805 275.81 42.0853L277.747 43.9566C276.721 44.9221 275.519 45.6961 274.202 46.2396C272.975 46.7439 271.659 47.017 270.326 47.0443Z" fill="#48CBC5"/>
<path d="M299.526 17.7957V46.7449H296.561V17.7957H299.526Z" fill="#48CBC5"/>
<path d="M307.16 46.7449V26.0669H310.124V46.7449H307.16ZM321.381 46.7449V34.2071C321.485 32.6563 320.949 31.1289 319.89 29.9592C319.338 29.4364 318.678 29.0313 317.954 28.7702C317.23 28.5091 316.457 28.3978 315.685 28.4435C314.185 28.3518 312.709 28.836 311.577 29.7908C311.081 30.2845 310.696 30.8717 310.446 31.5157C310.196 32.1597 310.087 32.8466 310.124 33.5334L309.698 29.5663C310.364 28.2613 311.462 27.2078 312.817 26.5722C314.152 25.9952 315.599 25.7016 317.061 25.7114C318.074 25.6538 319.087 25.8231 320.022 26.2061C320.956 26.5892 321.786 27.1755 322.447 27.9195C323.84 29.7009 324.527 31.9044 324.385 34.1322V46.6887L321.381 46.7449Z" fill="#48CBC5"/>
<path d="M338.103 47.0443C336.432 47.0498 334.77 46.7971 333.181 46.2958C331.735 45.8485 330.388 45.144 329.209 44.2186L330.914 42.1976C332.035 42.9383 333.254 43.5299 334.538 43.9566C335.68 44.3638 336.886 44.579 338.103 44.5929C339.757 44.683 341.406 44.3335 342.869 43.5824C343.391 43.292 343.821 42.8708 344.114 42.3635C344.407 41.8561 344.553 41.2814 344.536 40.7006C344.577 40.28 344.506 39.8562 344.33 39.4696C344.154 39.083 343.877 38.7465 343.528 38.4924C342.727 38.0194 341.827 37.7252 340.893 37.6316C339.789 37.5006 338.626 37.3883 337.386 37.2948C336.533 37.2948 335.661 37.1264 334.809 36.9954C334.002 36.86 333.219 36.6143 332.484 36.2656C331.787 35.9209 331.204 35.3961 330.798 34.7498C330.348 33.9071 330.134 32.9651 330.178 32.0177C330.134 31.1306 330.314 30.2464 330.702 29.4413C331.09 28.6361 331.675 27.9341 332.406 27.3956C334.274 26.2066 336.49 25.6353 338.723 25.7675C340.141 25.771 341.55 25.9727 342.908 26.3663C344.22 26.736 345.462 27.3044 346.589 28.0505L344.865 30.0528C343.874 29.4844 342.813 29.0381 341.707 28.7242C340.703 28.4222 339.658 28.2645 338.607 28.2564C337.143 28.1787 335.688 28.517 334.421 29.2294C333.949 29.5253 333.563 29.9339 333.302 30.4158C333.04 30.8977 332.912 31.4365 332.929 31.9803C332.909 32.3426 332.983 32.7042 333.145 33.0314C333.308 33.3586 333.554 33.6407 333.86 33.8516C334.59 34.2792 335.412 34.5415 336.262 34.6188C337.25 34.7311 338.316 34.8247 339.498 34.8995C340.68 34.9744 341.28 35.0492 342.21 35.1802C343.086 35.2984 343.936 35.5511 344.729 35.9287C345.534 36.292 346.208 36.8783 346.667 37.6129C347.177 38.5515 347.417 39.6045 347.364 40.6631C347.405 41.5754 347.207 42.4829 346.787 43.3009C346.366 44.1189 345.739 44.8209 344.962 45.3414C342.915 46.5842 340.517 47.1794 338.103 47.0443Z" fill="#48CBC5"/>
<path d="M352.654 55.147V26.0669H355.619V55.147H352.654ZM362.342 47.0443C360.88 47.0751 359.427 46.8073 358.079 46.2583C357.468 45.9907 356.919 45.6079 356.463 45.1323C356.007 44.6567 355.654 44.0979 355.425 43.4888L355.715 39.1661C355.715 40.0576 355.934 40.9364 356.355 41.7298C356.8 42.5651 357.469 43.2696 358.292 43.7695C359.163 44.3274 360.193 44.6087 361.238 44.5742C362.003 44.6165 362.77 44.4998 363.485 44.2319C364.2 43.9639 364.848 43.551 365.384 43.021C366.418 41.8099 366.937 40.2649 366.837 38.6983V34.2071C366.944 32.6168 366.425 31.0462 365.384 29.8095C364.838 29.2401 364.166 28.7977 363.417 28.5157C362.669 28.2337 361.864 28.1194 361.063 28.1815C360.022 28.15 358.995 28.424 358.118 28.9675C357.3 29.4577 356.632 30.1486 356.18 30.9698C355.763 31.7443 355.544 32.6041 355.541 33.4773L355.115 29.4914C355.755 28.2075 356.827 27.1716 358.157 26.5535C359.478 25.9808 360.913 25.6935 362.361 25.7114C363.366 25.6554 364.37 25.8257 365.295 26.2089C366.22 26.5921 367.04 27.1778 367.69 27.9195C369.066 29.7091 369.751 31.9065 369.627 34.1323V38.6421C369.773 40.853 369.084 43.0399 367.69 44.7987C367.019 45.5484 366.18 46.1403 365.236 46.5295C364.293 46.9186 363.27 47.0947 362.245 47.0443H362.342Z" fill="#48CBC5"/>
<path d="M384.372 47.0443C383.108 47.1226 381.84 46.9469 380.65 46.5282C379.459 46.1095 378.371 45.4569 377.455 44.6116C376.596 43.6877 375.936 42.608 375.514 41.4353C375.091 40.2627 374.915 39.0205 374.994 37.7813V35.4422C374.828 32.8577 375.672 30.307 377.358 28.2938C378.21 27.4326 379.246 26.7606 380.393 26.3243C381.541 25.8881 382.773 25.6981 384.004 25.7675C385.168 25.6889 386.335 25.8652 387.419 26.2832C388.503 26.7012 389.475 27.3501 390.262 28.1815C391.868 30.1865 392.66 32.6884 392.491 35.2176V37.5942H376.99V35.0679H389.681V34.8808C389.792 33.1747 389.262 31.4874 388.189 30.1277C387.661 29.5588 387.007 29.112 386.276 28.8204C385.545 28.5289 384.755 28.4001 383.965 28.4435C383.11 28.3902 382.253 28.5202 381.456 28.8243C380.658 29.1284 379.941 29.5991 379.354 30.2025C378.187 31.6293 377.608 33.422 377.726 35.2363V37.8562C377.671 38.728 377.795 39.6018 378.091 40.4271C378.387 41.2525 378.849 42.0132 379.451 42.6654C380.101 43.2566 380.869 43.7128 381.709 44.0056C382.549 44.2985 383.442 44.422 384.333 44.3683C385.347 44.3609 386.348 44.1573 387.279 43.7695C388.25 43.3772 389.132 42.805 389.875 42.0853L391.812 43.9566C390.786 44.9221 389.584 45.6961 388.267 46.2396C387.034 46.7457 385.712 47.0189 384.372 47.0443Z" fill="#48CBC5"/>
<path d="M406.887 47.0443C405.634 47.138 404.374 46.9875 403.183 46.6017C401.991 46.2159 400.892 45.6028 399.95 44.7987C399.121 43.8806 398.49 42.8118 398.094 41.655C397.698 40.4981 397.545 39.2766 397.645 38.062V34.6562C397.544 33.4502 397.697 32.237 398.093 31.0891C398.489 29.9413 399.121 28.8824 399.95 27.9757C400.9 27.1853 402.001 26.5835 403.191 26.2046C404.381 25.8257 405.637 25.6772 406.887 25.7675C408.454 25.7337 410.011 26.0141 411.46 26.5909C412.729 27.1415 413.83 27.9986 414.657 29.0797L412.448 30.951C411.771 30.1689 410.933 29.5316 409.987 29.0797C409.038 28.6642 408.006 28.4534 406.964 28.4622C406.104 28.395 405.238 28.4962 404.419 28.7599C403.6 29.0236 402.845 29.4442 402.198 29.9967C401.624 30.6349 401.187 31.3775 400.914 32.1809C400.642 32.9843 400.538 33.8322 400.609 34.6749V38.0807C400.539 38.932 400.643 39.7884 400.915 40.6008C401.188 41.4132 401.624 42.1656 402.198 42.8151C402.839 43.3779 403.593 43.8078 404.413 44.0782C405.232 44.3485 406.101 44.4536 406.964 44.387C408.055 44.3981 409.136 44.1943 410.142 43.7882C411.139 43.3551 412.025 42.7164 412.738 41.9169L414.676 43.7882C413.848 44.8585 412.746 45.7031 411.479 46.2396C410.02 46.8049 408.458 47.0786 406.887 47.0443Z" fill="#48CBC5"/>
<path d="M417.64 28.537V26.0669H427.328V28.537H417.64ZM424.809 46.8946C424.095 46.964 423.374 46.8735 422.702 46.6301C422.03 46.3867 421.425 45.9969 420.934 45.4911C420.068 44.3022 419.651 42.8621 419.752 41.4116V20.06H422.872V41.4116C422.83 42.1401 423.049 42.8602 423.492 43.4514C423.731 43.7126 424.032 43.9139 424.37 44.0377C424.707 44.1616 425.071 44.2044 425.429 44.1625H427.367V46.8946H424.809Z" fill="#48CBC5"/>
<path d="M433.684 20.6963V17.7957H436.648V20.6963H433.684ZM433.684 46.7823V26.0669H436.648V46.7449L433.684 46.7823Z" fill="#48CBC5"/>
<path d="M451.936 47.0443C450.74 47.1128 449.543 46.9383 448.421 46.5322C447.3 46.126 446.279 45.4973 445.425 44.6864C443.795 42.8441 442.968 40.4625 443.12 38.0433V34.675C442.965 32.3137 443.764 29.9864 445.348 28.1815C447.16 26.6709 449.474 25.8398 451.868 25.8398C454.262 25.8398 456.576 26.6709 458.388 28.1815C460.019 29.9939 460.847 32.353 460.693 34.7498V38.0994C460.847 40.5076 460.019 42.8782 458.388 44.7052C457.536 45.5017 456.523 46.1204 455.413 46.5228C454.303 46.9252 453.12 47.1027 451.936 47.0443ZM451.936 44.3683C452.74 44.4175 453.545 44.2955 454.295 44.0109C455.045 43.7264 455.721 43.2862 456.276 42.7216C457.38 41.4261 457.934 39.7741 457.826 38.0994V34.675C457.933 33.0061 457.379 31.3604 456.276 30.0715C455.717 29.5133 455.04 29.0788 454.291 28.7977C453.541 28.5166 452.738 28.3958 451.936 28.4435C451.139 28.3975 450.342 28.5193 449.599 28.8004C448.857 29.0815 448.186 29.5153 447.634 30.0715C446.538 31.3631 445.991 33.0086 446.103 34.675V38.0994C445.99 39.7717 446.537 41.4233 447.634 42.7216C448.182 43.2843 448.851 43.7236 449.595 44.0082C450.338 44.2928 451.137 44.4158 451.936 44.3683Z" fill="#48CBC5"/>
<path d="M466.68 46.7449V26.0669H469.645V46.7449H466.68ZM480.902 46.7449V34.2071C480.998 32.6574 480.462 31.133 479.41 29.9592C478.855 29.4359 478.192 29.0307 477.464 28.7696C476.737 28.5086 475.961 28.3975 475.186 28.4435C473.693 28.3527 472.223 28.8372 471.098 29.7908C470.602 30.2845 470.217 30.8717 469.967 31.5157C469.717 32.1597 469.607 32.8466 469.645 33.5334L469.199 29.5663C469.873 28.26 470.977 27.2068 472.338 26.5722C473.666 25.995 475.106 25.7014 476.562 25.7114C477.578 25.6552 478.594 25.825 479.531 26.2079C480.468 26.5907 481.302 27.1763 481.968 27.9195C483.351 29.7054 484.037 31.9056 483.905 34.1323V46.6887L480.902 46.7449Z" fill="#48CBC5"/>
<path d="M512.117 31.9241H522.502V36.1907C522.571 38.2569 522.175 40.3129 521.34 42.2163C520.625 43.7609 519.398 45.0316 517.852 45.8279C516.045 46.6814 514.049 47.0927 512.039 47.0256C510.006 47.0916 507.985 46.7076 506.13 45.9028C504.585 45.1842 503.336 43.9846 502.584 42.497C501.761 40.7349 501.364 38.8153 501.421 36.8831V28.2938C501.352 26.2276 501.749 24.1716 502.584 22.2682C503.306 20.7329 504.532 19.4702 506.071 18.6753C507.883 17.8369 509.877 17.4325 511.884 17.4964C513.609 17.4551 515.323 17.7809 516.903 18.4507C518.292 19.0884 519.482 20.0698 520.351 21.2951C521.334 22.745 521.994 24.3764 522.289 26.0857H519.073C518.708 24.3847 517.816 22.8312 516.515 21.6319C515.222 20.615 513.589 20.0893 511.923 20.1536C510.87 20.0591 509.808 20.1932 508.816 20.5461C507.824 20.8991 506.926 21.4619 506.188 22.1933C504.781 23.9243 504.09 26.0986 504.25 28.2938V36.8457C504.108 38.8901 504.804 40.9065 506.188 42.4596C506.974 43.1367 507.895 43.6518 508.894 43.9736C509.894 44.2953 510.951 44.4169 512 44.3309C513.006 44.4152 514.018 44.292 514.97 43.9693C515.922 43.6467 516.792 43.132 517.523 42.4596C518.897 40.695 519.552 38.5038 519.363 36.303V34.6562H512.097L512.117 31.9241Z" fill="#48CBC5"/>
<path d="M528.896 46.7449V26.0669H531.861V46.7449H528.896ZM541.49 29.7721C541.03 29.3215 540.465 28.9817 539.844 28.7803C539.093 28.5449 538.307 28.4311 537.518 28.4435C535.996 28.3593 534.499 28.8566 533.353 29.8283C532.856 30.3233 532.468 30.9098 532.212 31.5529C531.956 32.1959 531.836 32.8822 531.861 33.5709L531.376 29.6786C532.138 28.4792 533.207 27.4893 534.479 26.8043C535.752 26.1194 537.185 25.7623 538.642 25.7675C539.538 25.7613 540.429 25.9005 541.277 26.1792C542.045 26.4392 542.75 26.8466 543.351 27.3769L541.49 29.7721Z" fill="#48CBC5"/>
<path d="M554.724 47.0443C553.525 47.1143 552.325 46.9405 551.2 46.5344C550.076 46.1283 549.052 45.4987 548.194 44.6864C546.564 42.8441 545.737 40.4625 545.889 38.0433V34.675C545.756 32.3035 546.583 29.975 548.194 28.1815C550.007 26.6709 552.321 25.8398 554.714 25.8398C557.108 25.8398 559.422 26.6709 561.234 28.1815C562.866 29.9939 563.694 32.353 563.54 34.7498V38.0994C563.694 40.5076 562.866 42.8782 561.234 44.7052C560.376 45.5098 559.355 46.1332 558.234 46.5359C557.113 46.9386 555.918 47.1117 554.724 47.0443ZM554.724 44.3683C555.528 44.4188 556.334 44.2974 557.084 44.0127C557.835 43.7281 558.511 43.2873 559.064 42.7216C560.168 41.4261 560.722 39.7741 560.614 38.0994V34.675C560.721 33.0061 560.167 31.3604 559.064 30.0715C557.887 29.0234 556.345 28.4415 554.743 28.4415C553.142 28.4415 551.6 29.0234 550.423 30.0715C549.327 31.3631 548.78 33.0086 548.892 34.675V38.0994C548.779 39.7717 549.325 41.4233 550.423 42.7216C550.961 43.2699 551.615 43.7006 552.34 43.9846C553.066 44.2687 553.845 44.3995 554.627 44.3683H554.724Z" fill="#48CBC5"/>
<path d="M572.065 26.0669V38.6421C571.963 40.1837 572.492 41.7024 573.538 42.8713C574.081 43.3883 574.731 43.7888 575.446 44.0468C576.16 44.3048 576.923 44.4143 577.684 44.3683C578.429 44.4153 579.175 44.3187 579.88 44.0842C580.586 43.8497 581.235 43.4819 581.792 43.0023C582.297 42.484 582.687 41.8711 582.936 41.2016C583.186 40.5321 583.291 39.8202 583.245 39.1099L583.536 43.4326C582.97 44.4711 582.118 45.3388 581.075 45.9402C579.694 46.7286 578.105 47.1122 576.502 47.0443C575.475 47.1023 574.447 46.9336 573.497 46.551C572.547 46.1684 571.7 45.582 571.019 44.8361C569.631 43.0597 568.944 40.8636 569.081 38.6421V26.0669H572.065ZM583.245 46.7449V26.0669H586.19V46.7449H583.245Z" fill="#48CBC5"/>
<path d="M592.488 55.1471V26.0669H595.452V55.1471H592.488ZM602.079 47.0443C600.622 47.077 599.176 46.8091 597.835 46.2583C597.22 45.9937 596.666 45.612 596.207 45.1362C595.747 44.6604 595.392 44.1001 595.161 43.4888L595.452 39.1661C595.451 40.0576 595.671 40.9364 596.091 41.7298C596.536 42.5651 597.205 43.2696 598.029 43.7695C598.901 44.3251 599.93 44.6062 600.974 44.5742C601.74 44.6178 602.507 44.5016 603.222 44.2336C603.938 43.9656 604.585 43.552 605.121 43.021C606.162 41.8127 606.688 40.2674 606.593 38.6983V34.2071C606.692 32.6146 606.166 31.0444 605.121 29.8096C604.589 29.2721 603.943 28.853 603.227 28.5815C602.511 28.31 601.742 28.1927 600.974 28.2377C599.933 28.2085 598.907 28.4823 598.029 29.0236C597.211 29.5139 596.543 30.2048 596.091 31.0259C595.674 31.8004 595.455 32.6603 595.452 33.5335L595.026 29.5476C595.672 28.2679 596.743 27.2338 598.068 26.6096C599.396 26.0366 600.837 25.7493 602.292 25.7675C603.293 25.713 604.294 25.8841 605.216 26.2673C606.137 26.6506 606.953 27.2354 607.601 27.9757C608.985 29.7608 609.672 31.9616 609.538 34.1884V38.6983C609.684 40.9091 608.995 43.0961 607.601 44.8549C606.912 45.6003 606.057 46.1847 605.101 46.564C604.144 46.9433 603.111 47.1076 602.079 47.0443Z" fill="#48CBC5"/>
</svg>
